<?xml version="1.0" encoding="iso-8859-1"?>
<!-- Generator: Adobe Illustrator 19.0.0, SVG Export Plug-In . SVG Version: 6.00 Build 0)  -->
<svg version="1.1" id="Capa_1" xmlns="http://www.w3.org/2000/svg" xmlns:xlink="http://www.w3.org/1999/xlink" x="0px" y="0px"
	 viewBox="0 0 512 512" style="enable-background:new 0 0 512 512;" xml:space="preserve">
<rect y="37.5" style="fill:#FF4F19;" width="512" height="437"/>
<rect x="256" y="37.5" style="fill:#EE2600;" width="256" height="437"/>
<rect y="37.5" style="fill:#FFB84D;" width="109.8" height="437"/>
<rect x="401.43" y="37.5" style="fill:#FF9A00;" width="109.8" height="437"/>
<g>
	<polygon style="fill:#FFFFFF;" points="319.91,258.71 256,307.52 201.8,348.92 201.8,168.5 256,209.9 	"/>
	<rect x="39.792" y="92.44" style="fill:#FFFFFF;" width="29.875" height="35.34"/>
	<rect x="39.792" y="163.49" style="fill:#FFFFFF;" width="29.875" height="35.34"/>
	<rect x="39.792" y="234.55" style="fill:#FFFFFF;" width="29.875" height="35.34"/>
	<rect x="39.792" y="305.6" style="fill:#FFFFFF;" width="29.875" height="35.34"/>
	<rect x="39.792" y="376.66" style="fill:#FFFFFF;" width="29.875" height="35.34"/>
</g>
<g>
	<rect x="442.33" y="92.44" style="fill:#E1E1E3;" width="29.875" height="35.34"/>
	<rect x="442.33" y="163.49" style="fill:#E1E1E3;" width="29.875" height="35.34"/>
	<rect x="442.33" y="234.55" style="fill:#E1E1E3;" width="29.875" height="35.34"/>
	<rect x="442.33" y="305.6" style="fill:#E1E1E3;" width="29.875" height="35.34"/>
	<rect x="442.33" y="376.66" style="fill:#E1E1E3;" width="29.875" height="35.34"/>
</g>
<polygon style="fill:#C8C6CD;" points="319.91,258.71 256,307.52 256,209.9 "/>
<g>
</g>
<g>
</g>
<g>
</g>
<g>
</g>
<g>
</g>
<g>
</g>
<g>
</g>
<g>
</g>
<g>
</g>
<g>
</g>
<g>
</g>
<g>
</g>
<g>
</g>
<g>
</g>
<g>
</g>
</svg>
